<svg width="120" height="50" viewBox="0 0 120 50" fill="none" xmlns="http://www.w3.org/2000/svg">
<g clip-path="url(#clip0_2632_8576)">
<path d="M100.756 50L99.4379 49.1193C99.3193 49.0406 96.5091 47.1499 93.1527 43.7868L96.5145 40.4304C98.1934 42.1119 99.7257 43.3884 100.756 44.1919C104.538 41.2325 115.17 31.7921 115.17 19.1632C115.17 11.2165 108.705 4.75017 100.757 4.75017C92.8089 4.75017 86.3439 11.2152 86.3439 19.1632C86.3439 24.549 90.725 28.93 96.1107 28.93C101.496 28.93 105.878 24.549 105.878 19.1632H110.628C110.628 27.1686 104.115 33.6802 96.1107 33.6802C88.1067 33.6802 81.5938 27.1672 81.5938 19.1632C81.5938 8.59694 90.1894 0 100.757 0C111.325 0 119.92 8.59694 119.92 19.1632C119.92 37.018 102.804 48.6342 102.075 49.1206L100.756 50Z" fill="#004E68"/>
<path d="M95.3615 19.1632H90.6113C90.6113 13.6443 95.1003 9.15524 100.619 9.15524V13.9067C97.7199 13.9067 95.3615 16.2652 95.3615 19.1632Z" fill="#004E68"/>
<path d="M9.69754 27.1231C4.35043 27.1231 0 22.7727 0 17.4256C0 15.2137 0.726183 13.1298 2.0986 11.4002L4.17722 13.0498C3.18055 14.305 2.65423 15.8186 2.65423 17.4242C2.65423 21.3083 5.81479 24.4689 9.69754 24.4689C10.9767 24.4689 12.1759 24.1264 13.2112 23.5282C11.5576 23.5068 10.0213 22.838 8.87808 21.6401C7.71486 20.4222 7.11792 18.8233 7.1952 17.1378C7.33911 14.0225 9.89074 11.4695 13.006 11.327H13.2978C16.6609 11.327 19.3964 14.0611 19.3964 17.4242C19.3964 18.6381 19.1726 19.8013 18.7622 20.8726L45.2405 20.8673V14.1971H47.8947V23.5375L17.2285 23.5282C15.4484 25.72 12.7328 27.1231 9.6962 27.1231H9.69754ZM13.1006 13.9812C11.3538 14.0758 9.92805 15.5108 9.84677 17.2617C9.8028 18.2157 10.1399 19.1204 10.7981 19.808C11.4564 20.4969 12.3424 20.8753 13.2938 20.8753H15.8401C16.4157 19.8546 16.7435 18.6781 16.7435 17.4256C16.7435 15.5268 15.1979 13.9812 13.2991 13.9812H13.1019H13.1006Z" fill="#004E68"/>
<path d="M53.0449 4.71936H50.3906V24.2956H53.0449V4.71936Z" fill="#004E68"/>
<path fill-rule="evenodd" clip-rule="evenodd" d="M44.1663 11.7347L41.3722 8.94055L38.9178 11.3962L36.4621 8.94055L33.668 11.7347L36.4621 14.5288L38.9178 12.0745L41.3722 14.5288L44.1663 11.7347Z" fill="#004E68"/>
<path fill-rule="evenodd" clip-rule="evenodd" d="M18.5511 7.43089L15.7569 4.63675L13.3012 7.09245L10.8469 4.63675L8.05273 7.43089L10.8469 10.225L13.3012 7.77066L15.7569 10.225L18.5511 7.43089Z" fill="#004E68"/>
<path d="M38.9166 4.36622L36.123 7.15979L38.9166 9.95336L41.7102 7.15979L38.9166 4.36622Z" fill="#004E68"/>
<path d="M61.216 29.1591L59.7437 26.9339C61.5572 25.7294 66.266 21.7733 66.266 17.9972C66.266 15.7906 64.4699 13.9945 62.2634 13.9945C60.0568 13.9945 58.2607 15.7906 58.2607 17.9972C58.2607 19.3896 59.3933 20.5222 60.7857 20.5222C61.34 20.5222 61.865 20.3463 62.3047 20.0145L63.9129 22.1437C63.0055 22.8286 61.9249 23.191 60.7857 23.191C57.9222 23.191 55.5918 20.8606 55.5918 17.9972C55.5918 14.3183 58.5845 11.3256 62.2634 11.3256C65.9422 11.3256 68.9349 14.3183 68.9349 17.9972C68.9349 23.9825 61.5332 28.9512 61.2174 29.1591H61.216Z" fill="#004E68"/>
<path d="M0.0234375 33.6094H2.21264L4.32191 41.6987H4.35388L6.8762 33.6094H8.84289L11.3172 41.6987H11.3492L13.5544 33.6094H15.5851L12.3179 44.8393H10.4152L7.81424 36.289H7.78227L5.18133 44.8393H3.34123L0.0234375 33.6094Z" fill="#004E68"/>
<path d="M21.1048 33.6094H22.8343L27.6724 44.8393H25.3886L24.3413 42.269H19.4712L18.4559 44.8393H16.2188L21.1048 33.6094ZM23.6431 40.5568L21.9136 35.9878L20.1535 40.5568H23.6431Z" fill="#004E68"/>
<path d="M30.7972 35.4176H27.3555V33.6094H36.2389V35.4176H32.7958V44.8406H30.7972V35.4176Z" fill="#004E68"/>
<path d="M38.6309 33.6094H40.6295V38.0825H45.8794V33.6094H47.878V44.8393H45.8794V39.8906H40.6295V44.8393H38.6309V33.6094Z" fill="#004E68"/>
<path d="M51.3691 33.6094H53.3678V44.8393H51.3691V33.6094Z" fill="#004E68"/>
<path d="M68.9128 44.8393H62.3771C61.499 44.8393 60.6876 44.7047 59.9427 44.4355C59.1966 44.1651 58.5517 43.78 58.008 43.2777C57.4631 42.7753 57.0353 42.1624 56.7235 41.4375C56.4118 40.7127 56.2559 39.8959 56.2559 38.9872C56.2559 38.1624 56.4118 37.4042 56.7235 36.7114C57.0353 36.0185 57.4617 35.4216 58 34.9192C58.5397 34.4169 59.1659 34.0252 59.8801 33.7453C60.5943 33.4655 61.3525 33.3256 62.1559 33.3256C62.9594 33.3256 63.7176 33.4655 64.4317 33.7453C65.1459 34.0252 65.7722 34.4169 66.3118 34.9192C66.8515 35.4216 67.2765 36.0185 67.5883 36.7114C67.9001 37.4042 68.056 38.1624 68.056 38.9872C68.056 39.5801 67.9814 40.0998 67.8335 40.5501C67.6856 40.9992 67.4977 41.3936 67.2699 41.732C67.042 42.0705 66.7888 42.3583 66.509 42.5968C66.2292 42.8353 65.9561 43.0325 65.6922 43.191V43.223H68.9128V44.8406V44.8393ZM62.108 35.1324C61.5683 35.1324 61.0686 35.231 60.609 35.4256C60.1493 35.6214 59.7522 35.8932 59.4191 36.2423C59.086 36.5914 58.8248 37.0032 58.6343 37.4789C58.4437 37.9545 58.3491 38.4729 58.3491 39.0338C58.3491 39.5948 58.4451 40.1371 58.6343 40.6274C58.8248 41.1191 59.0886 41.5428 59.4271 41.8959C59.7655 42.2503 60.1653 42.5275 60.6249 42.7287C61.0846 42.9299 61.5896 43.0298 62.1399 43.0298C62.6902 43.0298 63.2006 42.9299 63.6709 42.7287C64.1413 42.5288 64.5463 42.2503 64.8848 41.8959C65.2232 41.5415 65.487 41.1191 65.6776 40.6274C65.8681 40.1357 65.9627 39.6041 65.9627 39.0338C65.9627 38.4635 65.8681 37.9545 65.6776 37.4789C65.487 37.0032 65.2232 36.5901 64.8848 36.2423C64.5463 35.8932 64.1413 35.6214 63.6709 35.4256C63.2006 35.2297 62.6796 35.1324 62.108 35.1324Z" fill="#004E68"/>
</g>
<defs>
<clipPath id="clip0_2632_8576">
<rect width="119.92" height="50" fill="white"/>
</clipPath>
</defs>
</svg>
